<svg xmlns="http://www.w3.org/2000/svg" viewBox="0 0 512 512" role="img">
  <title>Relaxed singing Codex robot</title>
  <desc>A pixel art Codex robot reclining in a chair and singing with its feet up while the hook is idle.</desc>
  <g shape-rendering="crispEdges">
    <!-- lounge floor -->
    <rect x="42" y="456" width="428" height="16" fill="#002b36" opacity=".72"/>
    <rect x="108" y="472" width="296" height="7" fill="#001b22" opacity=".52"/>

    <!-- chair behind the robot -->
    <rect x="276" y="226" width="128" height="188" fill="#001b22"/>
    <rect x="290" y="238" width="98" height="162" fill="#073642"/>
    <rect x="304" y="248" width="70" height="134" fill="#0b4b53"/>
    <rect x="290" y="238" width="98" height="14" fill="#2aa198"/>
    <rect x="256" y="388" width="160" height="40" fill="#001b22"/>
    <rect x="270" y="396" width="132" height="22" fill="#586e75"/>
    <rect x="332" y="418" width="14" height="40" fill="#001b22"/>
    <rect x="284" y="450" width="110" height="16" fill="#001b22"/>

    <!-- antenna keeping the beat: copied from behavior v1 -->
    <rect x="250" y="46" width="12" height="42" fill="#001b22"/>
    <rect x="254" y="48" width="8" height="38" fill="#2aa198"/>
    <rect x="232" y="26" width="48" height="24" fill="#001b22"/>
    <rect x="240" y="30" width="32" height="16" fill="#859900"/>
    <rect x="246" y="30" width="20" height="8" fill="#b8d638"/>

    <!-- expressive head: copied from behavior v1 -->
    <rect x="132" y="84" width="248" height="174" fill="#001b22"/>
    <rect x="116" y="112" width="280" height="118" fill="#001b22"/>
    <rect x="144" y="92" width="224" height="158" fill="#2aa198"/>
    <rect x="128" y="120" width="256" height="102" fill="#2aa198"/>
    <rect x="156" y="100" width="200" height="12" fill="#5fd0c4"/>
    <rect x="144" y="128" width="12" height="70" fill="#5fd0c4"/>
    <rect x="164" y="124" width="184" height="94" fill="#002b36"/>
    <rect x="176" y="136" width="160" height="70" fill="#073642"/>
    <rect x="176" y="136" width="160" height="8" fill="#0a4651"/>
    <rect x="144" y="234" width="224" height="12" fill="#0b4b53"/>

    <!-- ears: copied from behavior v1 -->
    <rect x="88" y="134" width="40" height="72" fill="#001b22"/>
    <rect x="96" y="144" width="32" height="52" fill="#0b4b53"/>
    <rect x="108" y="158" width="20" height="24" fill="#5fd0c4"/>
    <rect x="384" y="134" width="40" height="72" fill="#001b22"/>
    <rect x="384" y="144" width="32" height="52" fill="#0b4b53"/>
    <rect x="384" y="158" width="20" height="24" fill="#2aa198"/>

    <!-- closed happy eyes and singing mouth: copied from behavior v1 -->
    <rect x="190" y="162" width="42" height="8" fill="#b8d638"/>
    <rect x="198" y="170" width="26" height="6" fill="#b8d638"/>
    <rect x="280" y="162" width="42" height="8" fill="#b8d638"/>
    <rect x="288" y="170" width="26" height="6" fill="#b8d638"/>
    <rect x="238" y="188" width="38" height="8" fill="#f2c14e"/>
    <rect x="246" y="196" width="22" height="12" fill="#b58900"/>
    <rect x="250" y="198" width="14" height="6" fill="#fdf6e3"/>

    <!-- reclining torso -->
    <rect x="210" y="264" width="80" height="28" fill="#001b22"/>
    <rect x="222" y="264" width="56" height="20" fill="#586e75"/>
    <rect x="198" y="284" width="152" height="126" fill="#001b22"/>
    <rect x="182" y="310" width="184" height="74" fill="#001b22"/>
    <rect x="212" y="296" width="124" height="102" fill="#0b4b53"/>
    <rect x="226" y="296" width="96" height="14" fill="#2aa198"/>
    <rect x="228" y="326" width="92" height="44" fill="#073642"/>
    <rect x="240" y="338" width="68" height="20" fill="#002b36"/>
    <rect x="250" y="344" width="18" height="8" fill="#859900"/>
    <rect x="276" y="344" width="10" height="8" fill="#f2c14e"/>
    <rect x="294" y="344" width="12" height="8" fill="#859900"/>

    <!-- microphone hand in front of mouth -->
    <rect x="164" y="290" width="54" height="42" fill="#001b22"/>
    <rect x="174" y="298" width="42" height="26" fill="#0b4b53"/>
    <rect x="132" y="248" width="46" height="68" fill="#001b22"/>
    <rect x="140" y="256" width="30" height="54" fill="#2aa198"/>
    <rect x="128" y="230" width="54" height="34" fill="#001b22"/>
    <rect x="138" y="238" width="34" height="18" fill="#5fd0c4"/>
    <rect x="118" y="190" width="14" height="52" fill="#586e75"/>
    <rect x="106" y="168" width="38" height="30" fill="#001b22"/>
    <rect x="112" y="174" width="26" height="18" fill="#93a1a1"/>
    <rect x="116" y="174" width="6" height="6" fill="#fdf6e3"/>

    <!-- relaxed arm draped over chair -->
    <rect x="344" y="300" width="52" height="42" fill="#001b22"/>
    <rect x="346" y="308" width="42" height="26" fill="#0b4b53"/>
    <rect x="382" y="326" width="42" height="70" fill="#001b22"/>
    <rect x="390" y="334" width="26" height="54" fill="#2aa198"/>
    <rect x="396" y="382" width="52" height="30" fill="#001b22"/>
    <rect x="406" y="390" width="32" height="16" fill="#5fd0c4"/>

    <!-- crossed legs raised on a speaker -->
    <rect x="178" y="384" width="74" height="48" fill="#001b22"/>
    <rect x="190" y="392" width="54" height="32" fill="#586e75"/>
    <rect x="116" y="410" width="90" height="34" fill="#001b22"/>
    <rect x="128" y="418" width="66" height="18" fill="#93a1a1"/>
    <rect x="218" y="406" width="66" height="46" fill="#001b22"/>
    <rect x="228" y="414" width="48" height="30" fill="#586e75"/>
    <rect x="164" y="436" width="88" height="30" fill="#001b22"/>
    <rect x="176" y="442" width="64" height="16" fill="#93a1a1"/>
    <rect x="54" y="382" width="92" height="76" fill="#001b22"/>
    <rect x="66" y="394" width="68" height="52" fill="#073642"/>
    <rect x="84" y="406" width="32" height="28" fill="#0b4b53"/>
    <rect x="92" y="414" width="16" height="12" fill="#2aa198"/>

    <!-- music around the profile -->
    <rect x="36" y="92" width="14" height="56" fill="#f2c14e"/>
    <rect x="50" y="92" width="42" height="12" fill="#f2c14e"/>
    <rect x="80" y="102" width="12" height="42" fill="#f2c14e"/>
    <rect x="24" y="138" width="26" height="20" fill="#b58900"/>
    <rect x="66" y="134" width="26" height="20" fill="#b58900"/>
    <rect x="438" y="74" width="14" height="56" fill="#b8d638"/>
    <rect x="452" y="74" width="38" height="12" fill="#b8d638"/>
    <rect x="424" y="120" width="28" height="20" fill="#859900"/>
  </g>
</svg>
